<svg width="131" height="48" viewBox="0 0 131 48" fill="none" xmlns="http://www.w3.org/2000/svg">
<g clip-path="url(#clip0_1298_7876)">
<mask id="mask0_1298_7876" style="mask-type:luminance" maskUnits="userSpaceOnUse" x="-1" y="0" width="47" height="47">
<path d="M45.4077 0H-1V46.3997H45.4077V0Z" fill="white"/>
</mask>
<g mask="url(#mask0_1298_7876)">
<path opacity="0.4" d="M45.3432 10.6978C45.2632 10.6978 45.1912 10.7058 45.1191 10.7138L45.3112 10.5938C45.3112 10.5938 45.3352 10.6658 45.3432 10.7058V10.6978Z" fill="white"/>
<path d="M45.2387 12.0432L45.2227 12.0752L45.1907 12.1632L41.3901 21.3407C41.3501 21.4367 41.3021 21.5327 41.2621 21.6208C41.2461 21.6688 41.214 21.7088 41.19 21.7648C41.166 21.8128 41.142 21.8528 41.126 21.8928C41.094 21.9568 41.054 22.0208 41.022 22.0928C41.006 22.1168 40.998 22.1408 40.99 22.1568C40.942 22.2369 40.894 22.3169 40.838 22.3969V22.4049C40.1259 23.5011 39.1097 24.3492 37.8775 24.8613H37.8535L32.3806 27.1577L32.1085 27.2697L27.8678 29.046L26.2115 33.1107L25.7155 34.3349L23.8752 38.8636C23.3631 40.0958 22.5149 41.112 21.4267 41.8241C21.4267 41.8241 21.4187 41.8241 21.4107 41.8241C21.3307 41.8801 21.2507 41.9281 21.1707 41.9761L21.1067 42.0161C21.0427 42.0482 20.9787 42.0882 20.9147 42.1202C20.8667 42.1442 20.8266 42.1682 20.7786 42.1842C20.7306 42.2082 20.6906 42.2322 20.6426 42.2562C20.5546 42.3042 20.4506 42.3442 20.3626 42.3842L12.6253 45.5847L11.121 46.2088L11.057 46.2329C10.4569 46.4809 9.7768 46.4489 9.20071 46.1448L8.40057 45.7208L8.26455 45.6488L-0.272873 41.12C-0.832967 40.824 -1.11301 40.1678 -0.920981 39.5517L1.60744 31.3104L1.9675 30.1502L2.13553 29.6061C2.32756 28.974 2.32756 28.2939 2.13553 27.6538L1.9675 27.0937L1.59944 25.9015L-0.936984 17.7241C-1.12101 17.116 -0.848969 16.4519 -0.288876 16.1558L7.53643 12.0111L8.37657 11.5631L8.90466 11.283C9.49676 10.971 9.97684 10.4829 10.2889 9.8988L10.5529 9.40271L10.801 8.93063L15.1537 0.705265C15.4497 0.145171 16.1059 -0.126874 16.722 0.0571566L26.0995 2.93764H26.1235L26.6676 3.11367C27.2997 3.3057 27.9798 3.3057 28.6199 3.11367L29.188 2.94564L30.1642 2.64159L38.5576 0.0651579C39.1657 -0.126874 39.8298 0.153173 40.1259 0.713266L43.9505 7.92247L44.7266 9.39471L45.1427 10.1868C45.4467 10.7629 45.4788 11.4431 45.2307 12.0432H45.2387Z" fill="url(#paint0_linear_1298_7876)"/>
<path d="M45.1521 10.1868L44.736 9.39471L43.9599 7.92247L40.1272 0.713266C39.8312 0.153173 39.1671 -0.126874 38.559 0.0651579L30.1656 2.64159L29.1894 2.94564L28.6213 3.11367C27.9812 3.3057 27.3011 3.3057 26.669 3.11367L26.1249 2.94564H26.1009L16.7233 0.0571566C16.1152 -0.126874 15.4511 0.145171 15.1551 0.705265L10.8024 8.92263L10.5543 9.39471L10.2903 9.89079C9.97823 10.4829 9.49814 10.971 8.90605 11.275L8.37796 11.5551L7.53782 12.0031L-0.287486 16.1558C-0.847579 16.4519 -1.11962 17.108 -0.935594 17.7241L1.57682 25.9175L1.94489 27.1097L2.11291 27.6698C2.30495 28.3099 2.30495 28.99 2.11291 29.6221L1.94489 30.1662L1.58483 31.3264L-0.943595 39.5677C-1.13563 40.1758 -0.85558 40.84 -0.295487 41.136L8.24194 45.6648L8.37796 45.7368L9.17809 46.1608C9.75419 46.4649 10.4343 46.4969 11.0344 46.2489L11.0984 46.2249L12.6027 45.6007L20.34 42.4002C20.436 42.3602 20.532 42.3202 20.62 42.2722C20.668 42.2482 20.708 42.2242 20.756 42.2002C20.804 42.1762 20.844 42.1522 20.892 42.1362C20.9561 42.1042 21.0201 42.0642 21.0841 42.0322L21.1481 41.9921C21.2281 41.9441 21.3081 41.8961 21.3881 41.8401C21.3881 41.8401 21.3961 41.8401 21.4041 41.8401C22.4923 41.128 23.3485 40.1118 23.8525 38.8796L25.6928 34.3509L26.1889 33.1267L27.8452 29.062L32.0859 27.2857L32.358 27.1737L37.8309 24.8853H37.8549C39.0871 24.3652 40.1032 23.5171 40.8154 22.4209C40.8154 22.4209 40.8154 22.4209 40.8154 22.4129C40.8634 22.3329 40.9114 22.2529 40.9674 22.1728C40.9834 22.1568 40.9914 22.1328 40.9994 22.1088C41.0314 22.0368 41.0714 21.9808 41.1034 21.9088C41.1274 21.8688 41.1514 21.8208 41.1674 21.7808C41.1914 21.7328 41.2154 21.6848 41.2394 21.6368C41.2874 21.5407 41.3274 21.4447 41.3675 21.3567L45.1681 12.1792L45.2001 12.0912L45.2161 12.0592C45.4641 11.4591 45.4321 10.7789 45.1281 10.2028L45.1521 10.1868ZM28.7253 4.36988C28.8694 4.06582 29.1254 3.84979 29.4375 3.75377L38.815 0.873293C39.0391 0.801281 39.2791 0.897297 39.3831 1.10533L43.9759 9.77078C44.1359 10.0588 44.1599 10.4029 44.0399 10.7149C43.9279 11.027 43.6958 11.267 43.3918 11.395L33.7102 15.4037C33.3261 15.5637 32.878 15.3797 32.718 14.9876L32.1899 13.7074C32.1899 13.7074 32.1739 13.6674 32.1659 13.6514L28.7093 5.30603C28.5893 5.00198 28.5973 4.67393 28.7334 4.37788L28.7253 4.36988ZM27.9172 5.62608C27.9172 5.62608 27.9172 5.63409 27.9172 5.64209L31.3898 14.0275C31.9659 15.4437 31.9739 17.004 31.4138 18.4282L27.8692 26.9816C27.8052 27.1097 27.6932 27.1257 27.6452 27.1257C27.5972 27.1257 27.4691 27.1097 27.4051 26.9656L23.9165 18.5322C23.9165 18.5322 23.9005 18.5002 23.8925 18.4842C23.3004 17.028 23.3084 15.4277 23.9085 13.9715L24.4046 12.7713L27.3651 5.62608C27.4691 5.38604 27.8132 5.38604 27.9092 5.62608H27.9172ZM11.3144 9.77878L15.9072 1.10533C15.9952 0.945305 16.1633 0.849289 16.3313 0.849289C16.3793 0.849289 16.4273 0.849289 16.4673 0.865291L25.8449 3.74577C26.1569 3.84179 26.413 4.06582 26.557 4.36187C26.701 4.66592 26.709 4.99398 26.581 5.30603L23.1244 13.6434L22.5643 14.9876C22.4043 15.3717 21.9562 15.5557 21.5642 15.3957L20.2599 14.8516C20.2599 14.8516 20.2359 14.8436 20.2279 14.8356L11.8905 11.379C11.5865 11.251 11.3545 11.011 11.2424 10.6989C11.1304 10.3869 11.1544 10.0508 11.3064 9.75477L11.3144 9.77878ZM11.5705 12.1792H11.5785L19.9479 15.6518C21.3881 16.2599 22.5083 17.38 23.1164 18.8123C23.1164 18.8283 23.1244 18.8443 23.1324 18.8603L26.621 27.2937C26.677 27.4377 26.597 27.5337 26.565 27.5737C26.533 27.6137 26.429 27.6858 26.2849 27.6298L17.8515 24.1332C17.8515 24.1332 17.8195 24.1172 17.7955 24.1172C16.3553 23.5011 15.2271 22.3649 14.627 20.9166L11.1704 12.5712C11.0744 12.3312 11.3144 12.0832 11.5545 12.1872L11.5705 12.1792ZM26.1329 28.6459C26.1329 28.6939 26.1169 28.822 25.9729 28.878L17.5395 32.3745C17.5395 32.3745 17.5075 32.3905 17.4915 32.3985C16.0352 32.9826 14.435 32.9826 12.9787 32.3825L4.64134 28.926H4.63333C4.39329 28.822 4.39329 28.4779 4.63333 28.3739H4.64134L13.0347 24.9013C14.475 24.3172 16.0512 24.3252 17.4915 24.9013C17.5075 24.9013 17.5235 24.9173 17.5395 24.9253L25.9729 28.4139C26.1089 28.4779 26.1329 28.6059 26.1329 28.6539V28.6459ZM-0.127459 17.4681C-0.19147 17.244 -0.0954537 17.012 0.112581 16.9L8.77802 12.3072C8.94605 12.2192 9.13809 12.1712 9.32212 12.1712C9.45014 12.1712 9.58616 12.1952 9.71418 12.2432C10.0262 12.3552 10.2663 12.5872 10.3943 12.8913L14.403 22.5729C14.563 22.965 14.379 23.413 13.9869 23.5731L12.6987 24.1012C12.6987 24.1012 12.6667 24.1172 12.6427 24.1252L4.28928 27.5817C3.98523 27.7018 3.65717 27.6938 3.36112 27.5577C3.05707 27.4137 2.84104 27.1657 2.74502 26.8456L-0.13546 17.4681H-0.127459ZM10.3943 44.3925C10.2663 44.6966 10.0262 44.9206 9.71418 45.0407C9.40213 45.1527 9.06607 45.1287 8.77802 44.9686L0.112581 40.3759C-0.0874524 40.2719 -0.19147 40.0238 -0.119458 39.8078L2.76102 30.4302C2.85704 30.1182 3.07307 29.8621 3.37713 29.7181C3.53715 29.6461 3.70518 29.6061 3.87321 29.6061C4.01723 29.6061 4.17726 29.6381 4.32128 29.6941L12.6587 33.1507L14.0029 33.7108C14.387 33.8708 14.579 34.3189 14.419 34.7109L13.8749 36.0151C13.8749 36.0151 13.8589 36.0392 13.8589 36.0552L10.4023 44.4005L10.3943 44.3925ZM25.4288 32.7986L24.9327 34.0148C24.9327 34.0148 24.9327 34.0228 24.9327 34.0308L23.0924 38.5436V38.5596C22.7884 39.2877 22.3403 39.9278 21.7962 40.4559C21.7962 40.4559 21.7962 40.4639 21.7882 40.4639C21.5322 40.7119 21.2601 40.928 20.9641 41.12C20.892 41.168 20.82 41.216 20.748 41.256C20.732 41.264 20.716 41.272 20.7 41.28C20.644 41.312 20.58 41.344 20.516 41.384C20.484 41.4 20.452 41.416 20.412 41.4321C20.364 41.4561 20.3239 41.4801 20.2759 41.4961C20.1959 41.5281 20.1079 41.5761 20.0279 41.6081L11.5625 45.1127C11.3224 45.2087 11.0744 44.9686 11.1784 44.7206L14.643 36.3352C15.2511 34.895 16.3713 33.7828 17.8035 33.1747C17.8195 33.1667 17.8355 33.1587 17.8515 33.1507L26.2849 29.6541L26.453 29.5901C26.565 29.5421 26.677 29.4941 26.789 29.4301L25.4208 32.7986H25.4288ZM44.1199 12.5552L40.6153 21.0126C40.5833 21.1007 40.5433 21.1807 40.5033 21.2687C40.4873 21.3007 40.4713 21.3487 40.4473 21.3887C40.4313 21.4287 40.4073 21.4687 40.3913 21.5087C40.3593 21.5647 40.3273 21.6208 40.2953 21.6768C40.2873 21.7008 40.2713 21.7168 40.2633 21.7408C40.2233 21.8048 40.1753 21.8768 40.1353 21.9408C40.1353 21.9408 40.1272 21.9488 40.1272 21.9568C39.9352 22.2449 39.7192 22.5169 39.4791 22.7729C39.4791 22.7729 39.4711 22.7809 39.4711 22.7889C39.0151 23.269 38.471 23.6611 37.8549 23.9491C37.7589 23.9971 37.6548 24.0452 37.5508 24.0932L32.0219 26.4055L31.8139 26.4936L28.3653 27.9338C28.4613 27.7818 28.5333 27.6218 28.6053 27.4617L28.6693 27.3177C28.6693 27.3177 28.6773 27.3017 28.6853 27.2937L32.1739 18.8603C32.1739 18.8603 32.1979 18.7963 32.2139 18.7563C32.798 17.348 33.8862 16.2599 35.2784 15.6838L43.7359 12.1792C43.9759 12.0832 44.2239 12.3232 44.1199 12.5632V12.5552Z" fill="black"/>
<path opacity="0.4" d="M-0.136719 40.063V40.1831L-0.104713 40.1671C-0.120716 40.1351 -0.128717 40.095 -0.136719 40.071V40.063ZM45.3109 10.5861L45.1188 10.7061C45.1908 10.7061 45.2628 10.6981 45.3429 10.6901C45.3349 10.6581 45.3269 10.6181 45.3109 10.5781V10.5861Z" fill="white"/>
<path opacity="0.4" d="M31.421 18.4237L27.8764 26.9771C27.8124 27.1051 27.7004 27.1131 27.6523 27.1131V5.4375C27.7644 5.4375 27.8764 5.49351 27.9244 5.62153C27.9244 5.62153 27.9244 5.62953 27.9244 5.63753L31.397 14.0229C31.9731 15.4392 31.9811 16.9994 31.421 18.4237Z" fill="white"/>
<path opacity="0.4" d="M44.1197 12.555L40.6151 21.0124C40.5831 21.1004 40.5431 21.1804 40.5031 21.2604C40.4871 21.2925 40.4631 21.3405 40.4471 21.3805C40.4311 21.4205 40.4071 21.4605 40.3911 21.5005C40.359 21.5565 40.327 21.6125 40.295 21.6685C40.287 21.6925 40.271 21.7085 40.263 21.7325C40.223 21.7965 40.175 21.8685 40.135 21.9326C40.135 21.9326 40.127 21.9406 40.127 21.9486C39.935 22.2366 39.7189 22.5087 39.4789 22.7647C39.4789 22.7647 39.4709 22.7727 39.4709 22.7807C39.0148 23.2608 38.4707 23.6528 37.8626 23.9409C37.7666 23.9889 37.6626 24.0369 37.5586 24.0769L32.0297 26.3893L31.8216 26.4773L28.373 27.9176L44.0557 12.2109C44.1437 12.291 44.1917 12.411 44.1357 12.547L44.1197 12.555Z" fill="white"/>
<path opacity="0.4" d="M26.5729 27.5591L11.2344 12.2525C11.3144 12.1645 11.4344 12.1165 11.5704 12.1725H11.5784L19.9478 15.6451C21.3881 16.2532 22.5083 17.3734 23.1164 18.8056C23.1164 18.8216 23.1244 18.8376 23.1324 18.8536L26.6209 27.287C26.677 27.431 26.5969 27.5271 26.5649 27.5671L26.5729 27.5591Z" fill="white"/>
<path opacity="0.4" d="M26.125 28.6406H4.44141C4.44141 28.5366 4.50542 28.4166 4.62544 28.3686H4.63344L13.0268 24.896C14.4671 24.3119 16.0433 24.3199 17.4836 24.896C17.4996 24.896 17.5156 24.912 17.5316 24.92L25.965 28.4086C26.109 28.4726 26.125 28.6006 26.125 28.6486V28.6406Z" fill="white"/>
<path opacity="0.4" d="M26.7971 29.4297L11.2425 45.0403C11.1625 44.9603 11.1224 44.8403 11.1785 44.7202L14.651 36.3348C15.2511 34.8946 16.3793 33.7824 17.8116 33.1743C17.8276 33.1663 17.8436 33.1583 17.8596 33.1503L26.293 29.6537L26.461 29.5897C26.573 29.5417 26.685 29.4937 26.7971 29.4297Z" fill="white"/>
<path opacity="0.4" d="M9.70618 45.0413C9.39413 45.1533 9.05807 45.1293 8.77002 44.9773L0.104578 40.3845C0.0165635 40.3365 -0.0554486 40.2565 -0.103457 40.1685L-0.151465 40.1845V40.0645C-0.159466 39.9845 -0.159466 39.8964 -0.135462 39.8084L-0.111458 39.7284L2.73702 30.4309C2.83303 30.1188 3.04907 29.8628 3.35312 29.7188L6.51365 37.352L6.52965 37.384L9.69818 45.0333L9.70618 45.0413Z" fill="white"/>
<path opacity="0.4" d="M26.564 4.37215L18.9307 7.54068L11.2494 10.7252C11.1374 10.4132 11.1614 10.0771 11.3135 9.78105L15.9062 1.10761C15.9622 1.00359 16.0502 0.931576 16.1543 0.891569C16.2103 0.867565 16.2743 0.851562 16.3383 0.851562C16.3863 0.851562 16.4343 0.851563 16.4743 0.867565L25.8519 3.74805C26.1639 3.84406 26.42 4.0681 26.564 4.36415V4.37215Z" fill="white"/>
<path opacity="0.4" d="M14.3939 34.1141L6.54458 37.3947L-0.0965232 40.1711L-0.144531 40.1871V40.0671L-0.0965232 39.7311L2.75195 30.4335C2.84797 30.1215 3.064 29.8654 3.36805 29.7214C3.52808 29.6494 3.69611 29.6094 3.86414 29.6094C4.00816 29.6094 4.16819 29.6414 4.31221 29.6974L12.6496 33.154L13.9938 33.7141C14.1859 33.7941 14.3219 33.9381 14.4019 34.1141H14.3939Z" fill="white"/>
<path opacity="0.4" d="M26.5642 4.37196C26.7082 4.67601 26.7162 5.00407 26.5882 5.31612L23.1316 13.6535L22.5716 14.9977C22.4995 15.1738 22.3715 15.3098 22.2035 15.3898L18.9229 7.54049L16.1465 0.899382C16.2025 0.875378 16.2665 0.859375 16.3305 0.859375C16.3785 0.859375 16.4265 0.859375 16.4665 0.875378L25.8441 3.75586C26.1562 3.85187 26.4122 4.07591 26.5562 4.37196H26.5642Z" fill="white"/>
<path opacity="0.4" d="M11.5706 22.0135L3.36925 27.5664C3.0652 27.4224 2.84917 27.1744 2.75315 26.8543L-0.127328 17.4768C-0.159333 17.3807 -0.151332 17.2767 -0.127328 17.1807L-0.0793199 17.0847C-0.0313119 17.0047 0.0246975 16.9407 0.112712 16.9007L8.77816 12.3079C8.94618 12.2199 9.13022 12.1719 9.32225 12.1719C9.45027 12.1719 9.58629 12.1959 9.71431 12.2439L11.5706 22.0135Z" fill="white"/>
<path opacity="0.4" d="M43.975 9.77402C44.135 10.0701 44.159 10.4061 44.039 10.7182L34.3174 12.5825L28.7324 4.37312C28.8764 4.06907 29.1325 3.85304 29.4445 3.75702L38.8221 0.876539C38.9661 0.828531 39.1022 0.852535 39.2222 0.924547C39.2942 0.972555 39.3502 1.02856 39.3902 1.10858L43.983 9.77402H43.975Z" fill="white"/>
<path opacity="0.4" d="M43.975 9.77402C44.135 10.0701 44.159 10.4061 44.039 10.7182L34.3174 12.5825L28.7324 4.37312C28.8764 4.06907 29.1325 3.85304 29.4445 3.75702L38.8221 0.876539C38.9661 0.828531 39.1022 0.852535 39.2222 0.924547C39.2942 0.972555 39.3502 1.02856 39.3902 1.10858L43.983 9.77402H43.975Z" fill="#FAD9A1"/>
<path opacity="0.4" d="M14.3855 23.1737L11.569 22.0135L-0.128906 17.1807L-0.0808982 17.0847C-0.0328902 17.0047 0.0231191 16.9407 0.111134 16.9007L8.77658 12.3079C8.94461 12.2199 9.13664 12.1719 9.32067 12.1719C9.44869 12.1719 9.58471 12.1959 9.71273 12.2439C10.0248 12.3559 10.2648 12.5879 10.3928 12.892L14.4015 22.5736C14.4815 22.7736 14.4735 22.9897 14.3855 23.1737Z" fill="white"/>
<path opacity="0.4" d="M44.0388 10.7153C43.9268 11.0274 43.6948 11.2674 43.3907 11.3954L33.7091 15.4041C33.5171 15.4841 33.309 15.4841 33.125 15.4041L34.3092 12.5796L39.206 0.929688C39.278 0.977695 39.334 1.0337 39.374 1.11372L43.9668 9.77916C44.1268 10.0752 44.1508 10.4113 44.0308 10.7233L44.0388 10.7153Z" fill="#FFFACC" fill-opacity="0.79"/>
<path d="M45.1275 10.3057L40.1027 0.832139C39.7586 0.168028 38.9825 -0.152025 38.2704 0.072012L28.3247 3.12052C27.7246 3.30455 27.0925 3.30455 26.5084 3.12052L16.5708 0.0640107C16.4187 0.0160027 16.2667 0 16.1147 0C15.5466 0 15.0105 0.304051 14.7385 0.824137L9.86565 10.0097C9.5696 10.5698 9.12152 11.0178 8.57743 11.3059L-0.616098 16.1867C-1.27221 16.5308 -1.59226 17.2989 -1.37622 18.019L1.68028 27.9647C1.85631 28.5648 1.85631 29.1969 1.68028 29.789L-1.37622 39.7186C-1.60026 40.4307 -1.28021 41.1989 -0.616098 41.5509L8.86548 46.5758C9.48959 46.9118 10.2497 46.9518 10.9138 46.6718L20.3234 42.7831C20.3874 42.7591 20.4514 42.7271 20.4994 42.6951L20.7955 42.5511C20.8515 42.5271 20.8995 42.4951 20.9635 42.4551L21.0995 42.3751C21.1395 42.3511 21.1875 42.3271 21.2275 42.295L21.3236 42.239C22.4597 41.4949 23.3399 40.4387 23.852 39.1745L26.1884 33.4376C26.2524 33.2775 28.1247 28.5408 28.0527 28.3807C27.9887 28.2207 27.7566 28.8368 27.6046 28.7728C27.4446 28.7008 27.0845 28.5408 26.9325 28.6048C26.7725 28.6768 25.0522 32.7815 24.9962 32.9415L22.6278 38.7585C22.3317 39.4306 21.9237 40.0227 21.4036 40.5188L21.3476 40.5748C21.1235 40.7828 20.8755 40.9828 20.6034 41.1589C20.5314 41.2069 20.4674 41.2469 20.3954 41.2949L20.2754 41.3589C20.2754 41.3589 20.2274 41.3829 20.2034 41.3989L20.1554 41.4229C20.1554 41.4229 20.1234 41.4389 20.0914 41.4549L19.8913 41.5509C19.8433 41.5749 19.7953 41.5989 19.7393 41.6149L11.0979 45.1995L14.6344 36.6621C15.2105 35.2859 16.2907 34.2057 17.6669 33.6136L17.715 33.5976L26.3244 30.029C27.3326 29.6129 28.1567 28.7888 28.5728 27.7806L32.1894 19.0592C32.7415 17.715 33.7896 16.6748 35.1339 16.1147L43.7513 12.5461L40.1587 21.2275C40.1347 21.2835 40.1027 21.3476 40.0787 21.3956L40.0147 21.5316C40.0147 21.5316 39.9987 21.5636 39.9747 21.6196L39.8867 21.7716L39.6866 22.0757V22.1077L39.6706 22.1317C39.5106 22.3717 39.3186 22.6118 39.1105 22.8278L38.9985 22.9398C38.5744 23.3559 38.0864 23.7 37.5423 23.964C37.4542 24.012 37.3502 24.052 37.2542 24.092L28.0767 27.9247C27.7726 28.0527 27.5486 28.4607 27.6286 28.7648C27.7006 29.0608 27.3326 29.0528 27.6286 29.0528C27.7166 29.0528 27.7806 29.0848 27.8526 29.0528L37.7503 25.2922C39.0065 24.7721 40.0547 23.908 40.7988 22.7798L40.8548 22.7158V22.6918L40.8948 22.6198C40.8948 22.6198 40.9348 22.5558 40.9508 22.5238C40.9668 22.4997 40.9828 22.4757 41.0068 22.4277L41.1349 22.1877C41.1349 22.1877 41.1669 22.1237 41.1829 22.0837L41.2949 21.8516C41.3269 21.7876 41.3589 21.7236 41.3829 21.6596L45.2315 12.3541C45.5036 11.6819 45.4716 10.9378 45.1355 10.2977L45.1275 10.3057ZM11.2819 10.1057L15.8747 1.44024C15.9307 1.35223 16.0187 1.30422 16.1467 1.30422H16.1787L25.5563 4.1927C25.8123 4.26471 26.0123 4.44074 26.1324 4.68078C26.2444 4.92882 26.2524 5.20087 26.1564 5.44891L22.1397 15.1385C22.0837 15.2665 21.9797 15.3706 21.8436 15.4346C21.7716 15.4586 21.7076 15.4746 21.6356 15.4746C21.5636 15.4746 21.4916 15.4586 21.4276 15.4346L11.754 11.4259C11.5059 11.3219 11.3219 11.1219 11.2339 10.8738C11.1459 10.6178 11.1619 10.3457 11.2819 10.1137V10.1057ZM-0.136018 17.6269C-0.168023 17.5069 -0.120015 17.3869 -0.00799664 17.3229L8.65745 12.7221C8.89749 12.5941 9.16953 12.5781 9.41757 12.6741C9.66562 12.7621 9.86565 12.9462 9.96967 13.1942L13.9783 22.8678C14.0904 23.1479 13.9623 23.4599 13.6903 23.5799L4.00067 27.5886C3.88065 27.6366 3.76863 27.6606 3.64061 27.6606C3.50459 27.6606 3.37657 27.6286 3.24054 27.5726C3.0005 27.4526 2.83248 27.2605 2.74446 27.0045L-0.136018 17.6269ZM13.9703 34.8458L9.95366 44.5274C9.85765 44.7755 9.65761 44.9595 9.40157 45.0475C9.29755 45.0875 9.19354 45.1035 9.08152 45.1035C8.92949 45.1035 8.78547 45.0715 8.64945 44.9915L-0.015998 40.4067C-0.128017 40.3507 -0.176025 40.2147 -0.136018 40.0947L2.74446 30.7171C2.82448 30.4611 3.0005 30.261 3.23254 30.149C3.47258 30.037 3.73663 30.029 3.99267 30.125L13.6743 34.1417C13.9463 34.2617 14.0824 34.5738 13.9703 34.8458ZM17.2269 32.3734L17.1869 32.3894C16.4828 32.6774 15.7466 32.8215 15.0105 32.8215C14.2744 32.8215 13.5303 32.6774 12.8261 32.3894L4.62478 28.9808V28.7248L12.8742 25.3082C14.2584 24.7561 15.7866 24.7561 17.1709 25.3082L25.4763 28.7488L25.6683 28.8688L17.2269 32.3654V32.3734ZM17.739 24.14C17.739 24.14 17.683 24.116 17.6669 24.116C16.2667 23.5079 15.1865 22.4197 14.6104 21.0355L11.0899 12.5301L19.6273 16.0667C21.0035 16.6508 22.0837 17.723 22.6678 19.0912C22.6838 19.1232 22.6838 19.1472 22.6918 19.1552L26.2124 27.6526L17.731 24.14H17.739ZM30.9812 18.5551L27.4206 27.1565L23.876 18.5951C23.3159 17.2029 23.3239 15.6666 23.9 14.2744L27.4206 5.76896L30.9652 14.3224C31.5173 15.6826 31.5253 17.1789 30.9812 18.5551ZM43.5993 10.8498C43.5193 11.1059 43.3272 11.2979 43.0792 11.4019L33.3976 15.4106C33.3256 15.4346 33.2615 15.4426 33.1895 15.4426C33.1175 15.4426 33.0535 15.4266 32.9895 15.4026C32.8535 15.3466 32.7495 15.2425 32.6935 15.1065L28.6848 5.4249C28.5808 5.18486 28.5888 4.91282 28.7008 4.68078C28.8208 4.44074 29.0208 4.25671 29.2769 4.1847L38.6544 1.30422C38.6544 1.30422 38.7105 1.28821 38.7345 1.28821C38.8305 1.28821 38.9185 1.34422 38.9585 1.42424L43.5513 10.0977C43.6233 10.2257 43.6553 10.3697 43.6553 10.5218C43.6553 10.6418 43.6393 10.7538 43.5993 10.8498Z" fill="black"/>
<path opacity="0.38" d="M43.9826 9.8209C44.1426 10.1169 44.1666 10.453 44.0546 10.7651L34.333 12.6294L28.748 4.42C28.8921 4.11595 29.1401 3.89991 29.4602 3.80389L38.8377 0.923414C38.9817 0.875406 39.1178 0.89941 39.2378 0.971422C39.3098 1.01943 39.3658 1.08344 39.4058 1.15545L43.9986 9.8209H43.9826Z" fill="#FFFA87" fill-opacity="0.19"/>
</g>
</g>
<defs>
<linearGradient id="paint0_linear_1298_7876" x1="33.2927" y1="-3.46343" x2="5.58411" y2="44.5286" gradientUnits="userSpaceOnUse">
<stop offset="0.1" stop-color="#FFF42F"/>
<stop offset="0.31" stop-color="#FFA232"/>
<stop offset="0.47" stop-color="#F450B2"/>
<stop offset="0.71" stop-color="#3FCBFF"/>
<stop offset="0.96" stop-color="#D0D81D"/>
</linearGradient>
<clipPath id="clip0_1298_7876">
<rect width="130.902" height="48" fill="white"/>
</clipPath>
</defs>
</svg>
